<svg width="1600" height="900" viewBox="0 0 1600 900" fill="none" xmlns="http://www.w3.org/2000/svg">
  <defs>
    <linearGradient id="mistBg" x1="800" y1="0" x2="800" y2="900" gradientUnits="userSpaceOnUse">
      <stop offset="0" stop-color="#1E4A37"/>
      <stop offset="1" stop-color="#0A1E16"/>
    </linearGradient>
  </defs>
  <rect width="1600" height="900" fill="url(#mistBg)"/>
  <ellipse cx="260" cy="280" rx="330" ry="120" fill="#BFDAC8" fill-opacity="0.18"/>
  <ellipse cx="900" cy="320" rx="500" ry="140" fill="#CBE5D4" fill-opacity="0.16"/>
  <ellipse cx="1400" cy="370" rx="340" ry="120" fill="#D6EBDC" fill-opacity="0.15"/>
  <path d="M0 520C200 470 390 495 560 560C750 635 1020 655 1250 600C1390 565 1510 555 1600 575V900H0V520Z" fill="#183F2D" fill-opacity="0.7"/>
  <path d="M0 660C190 620 360 640 540 700C770 780 1010 790 1240 730C1370 695 1490 690 1600 710V900H0V660Z" fill="#102B1E" fill-opacity="0.86"/>
</svg>
