<svg width="1600" height="900" viewBox="0 0 1600 900" fill="none" xmlns="http://www.w3.org/2000/svg">
  <rect width="1600" height="900" fill="#0B2217"/>
  <g opacity="0.86">
    <path d="M70 760C100 490 130 330 210 130" stroke="#4C945E" stroke-width="12" stroke-linecap="round"/>
    <path d="M260 900C300 620 350 420 500 130" stroke="#3E7C4F" stroke-width="14" stroke-linecap="round"/>
    <path d="M620 890C650 610 690 390 820 120" stroke="#4A8D5B" stroke-width="10" stroke-linecap="round"/>
    <path d="M980 900C1010 640 1060 430 1190 140" stroke="#3C754C" stroke-width="12" stroke-linecap="round"/>
    <path d="M1310 900C1350 600 1400 410 1510 190" stroke="#4B925D" stroke-width="10" stroke-linecap="round"/>
  </g>
  <path d="M0 500C170 440 330 460 520 530C700 600 950 620 1150 570C1320 530 1460 510 1600 550V900H0V500Z" fill="#143C27" fill-opacity="0.75"/>
  <path d="M0 640C220 590 420 620 630 700C860 780 1120 785 1350 720C1460 690 1530 680 1600 700V900H0V640Z" fill="#0D2A1C" fill-opacity="0.9"/>
</svg>
