<svg width="1600" height="900" viewBox="0 0 1600 900" fill="none" xmlns="http://www.w3.org/2000/svg">
  <defs>
    <linearGradient id="nightBg" x1="800" y1="0" x2="800" y2="900" gradientUnits="userSpaceOnUse">
      <stop offset="0" stop-color="#0A1631"/>
      <stop offset="1" stop-color="#050D1D"/>
    </linearGradient>
  </defs>
  <rect width="1600" height="900" fill="url(#nightBg)"/>
  <circle cx="1320" cy="160" r="60" fill="#DCE6F9" fill-opacity="0.25"/>
  <circle cx="300" cy="200" r="3" fill="#DBE8FF"/>
  <circle cx="370" cy="250" r="2" fill="#DBE8FF"/>
  <circle cx="490" cy="180" r="2" fill="#DBE8FF"/>
  <circle cx="1040" cy="210" r="3" fill="#DBE8FF"/>
  <circle cx="1120" cy="260" r="2" fill="#DBE8FF"/>
  <path d="M0 480C190 430 370 470 560 540C760 615 980 625 1180 560C1340 510 1470 505 1600 540V900H0V480Z" fill="#13263D" fill-opacity="0.75"/>
  <path d="M0 620C220 570 410 615 620 690C820 760 1060 770 1280 710C1420 670 1520 670 1600 695V900H0V620Z" fill="#09172A" fill-opacity="0.9"/>
</svg>
