<svg width="1600" height="900" viewBox="0 0 1600 900" fill="none" xmlns="http://www.w3.org/2000/svg">
  <defs>
    <linearGradient id="dawnSky" x1="800" y1="0" x2="800" y2="900" gradientUnits="userSpaceOnUse">
      <stop offset="0" stop-color="#6CB36E" stop-opacity="0.55"/>
      <stop offset="1" stop-color="#0B2317" stop-opacity="0.9"/>
    </linearGradient>
  </defs>
  <rect width="1600" height="900" fill="url(#dawnSky)"/>
  <ellipse cx="340" cy="120" rx="300" ry="120" fill="#D0E888" fill-opacity="0.24"/>
  <path d="M0 290C140 210 320 210 470 300C620 390 810 390 950 315C1090 240 1290 235 1600 330V900H0V290Z" fill="#2B6A42" fill-opacity="0.5"/>
  <path d="M0 420C220 360 470 390 640 450C840 520 1020 520 1230 455C1390 405 1500 395 1600 420V900H0V420Z" fill="#1D4E34" fill-opacity="0.62"/>
  <path d="M0 580C180 530 330 565 480 620C650 685 890 685 1050 630C1250 565 1430 575 1600 620V900H0V580Z" fill="#123723" fill-opacity="0.82"/>
</svg>
